<?xml version="1.0" encoding="UTF-8"?>
<svg id="uuid-9b6718f2-3a92-4389-9995-359d2ecb924c" data-name="Layer 2" xmlns="http://www.w3.org/2000/svg" xmlns:xlink="http://www.w3.org/1999/xlink" viewBox="0 0 66.917 36.439">
  <defs>
    <linearGradient id="uuid-af7ae582-78a0-4bda-8495-55e400fbadec" data-name="New Gradient Swatch copy 2" x1="38.746" y1="38.996" x2="59.071" y2="18.671" gradientUnits="userSpaceOnUse">
      <stop offset="0" stop-color="#cfe7f7"/>
      <stop offset="1" stop-color="#e1edf8"/>
    </linearGradient>
  </defs>
  <g id="uuid-40dbd290-0341-4c0c-aa5d-05a504f7f08c" data-name="Icons">
    <g id="uuid-c7956084-0a4c-4dad-87cd-4929b60cc195" data-name="cloudy">
      <path d="m46.003,36.439c5.889,0,10.664-4.774,10.664-10.664s-4.774-10.664-10.664-10.664c-.037,0-.072.005-.109.005C44.945,6.613,37.736,0,28.979,0c-6.916,0-12.864,4.126-15.528,10.049-.084-.002-.168-.006-.252-.006C5.909,10.042,0,15.951,0,23.241s5.909,13.198,13.198,13.198" fill="#fff"/>
      <path d="m60.22,36.439c3.698,0,6.696-2.998,6.696-6.696s-2.998-6.696-6.696-6.696c-.023,0-.045.003-.068.003-.596-5.34-5.123-9.492-10.622-9.492-4.343,0-8.078,2.591-9.751,6.31-.053,0-.105-.004-.158-.004-4.577,0-8.288,3.711-8.288,8.288s3.711,8.288,8.288,8.288" fill="url(#uuid-af7ae582-78a0-4bda-8495-55e400fbadec)"/>
    </g>
  </g>
</svg>