<?xml version="1.0" encoding="UTF-8"?>
<svg id="uuid-5d2cd1f3-7820-453d-983e-5640fd1f853c" data-name="Layer 2" xmlns="http://www.w3.org/2000/svg" xmlns:xlink="http://www.w3.org/1999/xlink" viewBox="0 0 67 73.037">
  <defs>
    <linearGradient id="uuid-3dfde204-c3c5-4152-abce-5aaa88947ce3" data-name="New Gradient Swatch copy" x1="42.616" y1="24.383" x2="58.218" y2="8.782" gradientUnits="userSpaceOnUse">
      <stop offset="0" stop-color="#00adee"/>
      <stop offset="1" stop-color="#00bcf1"/>
    </linearGradient>
    <linearGradient id="uuid-5bef3ab5-d92e-4a7f-8a57-8a61ede52025" data-name="New Gradient Swatch copy 2" x1="11.804" y1="48.443" x2="44.172" y2="16.075" gradientUnits="userSpaceOnUse">
      <stop offset="0" stop-color="#cfe7f7"/>
      <stop offset="1" stop-color="#e1edf8"/>
    </linearGradient>
    <linearGradient id="uuid-c124fc97-a53a-4e88-99f7-5da193f459b1" data-name="New Gradient Swatch copy" x1="4.815" y1="59.345" x2="15.315" y2="59.345" xlink:href="#uuid-3dfde204-c3c5-4152-abce-5aaa88947ce3"/>
    <linearGradient id="uuid-205fd185-7af8-4a67-a575-a739385dc44d" data-name="New Gradient Swatch copy" x1="11.955" y1="62.376" x2="25.956" y2="62.376" xlink:href="#uuid-3dfde204-c3c5-4152-abce-5aaa88947ce3"/>
    <linearGradient id="uuid-cf36d2f4-c6a3-4d4b-ac96-6e9e4f5e2b2c" data-name="New Gradient Swatch copy 2" x1="33.263" y1="53.429" x2="37.263" y2="53.429" xlink:href="#uuid-5bef3ab5-d92e-4a7f-8a57-8a61ede52025"/>
    <linearGradient id="uuid-c150740b-9269-4038-afd2-ab758e4fff11" data-name="New Gradient Swatch copy 2" x1="43.263" y1="53.429" x2="47.263" y2="53.429" xlink:href="#uuid-5bef3ab5-d92e-4a7f-8a57-8a61ede52025"/>
    <linearGradient id="uuid-30e5a9ce-8985-443e-ae4e-1b4c89e290a4" data-name="New Gradient Swatch copy 2" x1="24.263" y1="70.429" x2="28.263" y2="70.429" xlink:href="#uuid-5bef3ab5-d92e-4a7f-8a57-8a61ede52025"/>
    <linearGradient id="uuid-7059f578-33fb-48e5-b794-8e0375d89e4e" data-name="New Gradient Swatch copy 2" x1="29.263" y1="61.429" x2="33.263" y2="61.429" xlink:href="#uuid-5bef3ab5-d92e-4a7f-8a57-8a61ede52025"/>
    <linearGradient id="uuid-2ce3e72f-ad70-4e04-ad56-96e72229684d" data-name="New Gradient Swatch copy 2" x1="39.263" y1="61.429" x2="43.263" y2="61.429" xlink:href="#uuid-5bef3ab5-d92e-4a7f-8a57-8a61ede52025"/>
  </defs>
  <g id="uuid-ae1e4d30-66ba-4cae-9fd7-963b24a55be4" data-name="Icons">
    <g id="uuid-c60e79a8-eaad-4961-96e0-637970621604" data-name="rain-snow-showers-night">
      <path d="m52.94,28.666c-8.054,0-14.606-6.552-14.606-14.606C38.333,7.586,42.681,1.816,48.907.029c.271-.076.556-.002.752.195.197.197.271.485.194.752-.342,1.194-.516,2.409-.516,3.611,0,7.21,5.866,13.076,13.076,13.076,1.2,0,2.415-.174,3.611-.517.268-.075.555-.001.752.195.197.197.271.485.194.752-1.787,6.226-7.557,10.574-14.03,10.574Z" fill="url(#uuid-3dfde204-c3c5-4152-abce-5aaa88947ce3)"/>
      <path d="m46.003,44.37c5.889,0,10.664-4.774,10.664-10.664s-4.774-10.664-10.664-10.664c-.037,0-.072.005-.109.005-.949-8.504-8.158-15.117-16.915-15.117-6.916,0-12.864,4.126-15.528,10.049-.084-.002-.168-.006-.252-.006-7.289,0-13.198,5.909-13.198,13.198s5.909,13.198,13.198,13.198" fill="url(#uuid-5bef3ab5-d92e-4a7f-8a57-8a61ede52025)"/>
      <path d="m60.22,44.37c3.698,0,6.696-2.998,6.696-6.696s-2.998-6.696-6.696-6.696c-.023,0-.045.003-.068.003-.596-5.34-5.123-9.492-10.622-9.492-4.343,0-8.078,2.591-9.751,6.31-.053,0-.105-.004-.158-.004-4.577,0-8.288,3.711-8.288,8.288s3.711,8.288,8.288,8.288" fill="#fff"/>
      <path d="m6.813,66.974c-.339,0-.683-.086-.998-.269-.957-.552-1.284-1.775-.732-2.732l6.499-11.256c.553-.957,1.772-1.287,2.732-.732.957.552,1.284,1.775.732,2.732l-6.499,11.256c-.371.642-1.043,1-1.734,1Z" fill="url(#uuid-c124fc97-a53a-4e88-99f7-5da193f459b1)"/>
      <path d="m13.953,73.037c-.339,0-.683-.086-.998-.268-.957-.553-1.284-1.775-.732-2.732l10-17.32c.552-.957,1.772-1.287,2.732-.732.957.552,1.284,1.775.732,2.732l-10,17.32c-.371.642-1.043,1-1.734,1Z" fill="url(#uuid-205fd185-7af8-4a67-a575-a739385dc44d)"/>
      <circle cx="35.263" cy="53.429" r="2" fill="url(#uuid-cf36d2f4-c6a3-4d4b-ac96-6e9e4f5e2b2c)"/>
      <circle cx="45.263" cy="53.429" r="2" fill="url(#uuid-c150740b-9269-4038-afd2-ab758e4fff11)"/>
      <circle cx="26.263" cy="70.429" r="2" fill="url(#uuid-30e5a9ce-8985-443e-ae4e-1b4c89e290a4)"/>
      <circle cx="31.263" cy="61.429" r="2" fill="url(#uuid-7059f578-33fb-48e5-b794-8e0375d89e4e)"/>
      <circle cx="41.263" cy="61.429" r="2" fill="url(#uuid-2ce3e72f-ad70-4e04-ad56-96e72229684d)"/>
    </g>
  </g>
</svg>