<?xml version="1.0" encoding="UTF-8"?>
<svg id="uuid-857d9846-6909-410e-9ff7-cfeb9622a84b" data-name="Layer 2" xmlns="http://www.w3.org/2000/svg" xmlns:xlink="http://www.w3.org/1999/xlink" viewBox="0 0 67 60.718">
  <defs>
    <linearGradient id="uuid-06cae090-115b-4e5f-b23d-5e4bc7b916d2" data-name="New Gradient Swatch copy" x1="42.616" y1="24.383" x2="58.218" y2="8.782" gradientUnits="userSpaceOnUse">
      <stop offset="0" stop-color="#00adee"/>
      <stop offset="1" stop-color="#00bcf1"/>
    </linearGradient>
    <linearGradient id="uuid-c70c21d1-9a75-47cd-8d52-d036eca4da25" data-name="New Gradient Swatch copy 2" x1="11.804" y1="48.443" x2="44.172" y2="16.075" gradientUnits="userSpaceOnUse">
      <stop offset="0" stop-color="#cfe7f7"/>
      <stop offset="1" stop-color="#e1edf8"/>
    </linearGradient>
    <linearGradient id="uuid-43c128a5-9aa6-4e91-ad23-b13b164d8761" data-name="New Gradient Swatch copy" x1="10.143" y1="56.217" x2="17.031" y2="56.217" xlink:href="#uuid-06cae090-115b-4e5f-b23d-5e4bc7b916d2"/>
    <linearGradient id="uuid-5ff4fbee-88aa-4022-8f41-f63104303d21" data-name="New Gradient Swatch copy" x1="23.756" y1="56.217" x2="30.643" y2="56.217" xlink:href="#uuid-06cae090-115b-4e5f-b23d-5e4bc7b916d2"/>
    <linearGradient id="uuid-88ba409b-c7a9-4b43-ae10-d2cc5a04d0b2" data-name="New Gradient Swatch copy" x1="38.367" y1="56.217" x2="45.255" y2="56.217" xlink:href="#uuid-06cae090-115b-4e5f-b23d-5e4bc7b916d2"/>
  </defs>
  <g id="uuid-54214a61-a82b-40d5-84ea-1cde8349a304" data-name="Icons">
    <g id="uuid-50a0c5cb-1399-459a-ab6a-5ab4732cf6f1" data-name="showers-night">
      <path d="m52.94,28.666c-8.054,0-14.606-6.552-14.606-14.606C38.333,7.586,42.681,1.816,48.907.029c.271-.076.556-.002.752.195.197.197.271.485.194.752-.342,1.194-.516,2.409-.516,3.611,0,7.21,5.866,13.076,13.076,13.076,1.2,0,2.415-.174,3.611-.517.268-.075.555-.001.752.195.197.197.271.485.194.752-1.787,6.226-7.557,10.574-14.03,10.574Z" fill="url(#uuid-06cae090-115b-4e5f-b23d-5e4bc7b916d2)"/>
      <path d="m46.003,44.37c5.889,0,10.664-4.774,10.664-10.664s-4.774-10.664-10.664-10.664c-.037,0-.072.005-.109.005-.949-8.504-8.158-15.117-16.915-15.117-6.916,0-12.864,4.126-15.528,10.049-.084-.002-.168-.006-.252-.006-7.289,0-13.198,5.909-13.198,13.198s5.909,13.198,13.198,13.198" fill="url(#uuid-c70c21d1-9a75-47cd-8d52-d036eca4da25)"/>
      <path d="m60.22,44.37c3.698,0,6.696-2.998,6.696-6.696s-2.998-6.696-6.696-6.696c-.023,0-.045.003-.068.003-.596-5.34-5.123-9.492-10.622-9.492-4.343,0-8.078,2.591-9.751,6.31-.053,0-.105-.004-.158-.004-4.577,0-8.288,3.711-8.288,8.288s3.711,8.288,8.288,8.288" fill="#fff"/>
      <path d="m12.142,60.718c-.339,0-.683-.086-.998-.269-.957-.552-1.284-1.775-.732-2.732l2.887-5c.553-.957,1.773-1.287,2.732-.732.957.552,1.284,1.775.732,2.732l-2.887,5c-.371.642-1.043,1-1.734,1Z" fill="url(#uuid-43c128a5-9aa6-4e91-ad23-b13b164d8761)"/>
      <path d="m25.754,60.718c-.339,0-.683-.086-.998-.269-.957-.552-1.284-1.775-.732-2.732l2.887-5c.553-.957,1.772-1.287,2.732-.732.957.552,1.284,1.775.732,2.732l-2.887,5c-.371.642-1.043,1-1.734,1Z" fill="url(#uuid-5ff4fbee-88aa-4022-8f41-f63104303d21)"/>
      <path d="m40.365,60.718c-.339,0-.683-.086-.998-.269-.957-.552-1.284-1.775-.732-2.732l2.887-5c.553-.957,1.772-1.287,2.732-.732.957.552,1.284,1.775.732,2.732l-2.887,5c-.371.642-1.043,1-1.734,1Z" fill="url(#uuid-88ba409b-c7a9-4b43-ae10-d2cc5a04d0b2)"/>
    </g>
  </g>
</svg>