<?xml version="1.0" encoding="UTF-8"?>
<svg id="uuid-fe2b7b16-9d63-41e9-b6a4-2c8d67c17f58" data-name="Layer 2" xmlns="http://www.w3.org/2000/svg" xmlns:xlink="http://www.w3.org/1999/xlink" viewBox="0 0 67 68.557">
  <defs>
    <linearGradient id="uuid-ee1d3925-073f-433d-be68-1fe9e4b3cd7b" data-name="New Gradient Swatch 1" x1="28.789" y1="64.234" x2="47.996" y2="45.026" gradientUnits="userSpaceOnUse">
      <stop offset="0" stop-color="#fcb627"/>
      <stop offset="1" stop-color="#ffcd22"/>
    </linearGradient>
    <linearGradient id="uuid-3484e342-8aca-4be7-a880-ce410a9f5689" data-name="New Gradient Swatch copy" x1="42.616" y1="24.383" x2="58.218" y2="8.782" gradientUnits="userSpaceOnUse">
      <stop offset="0" stop-color="#00adee"/>
      <stop offset="1" stop-color="#00bcf1"/>
    </linearGradient>
    <linearGradient id="uuid-1c6eaac5-cb4f-4fca-bedb-38ab7eec78c3" data-name="New Gradient Swatch copy 2" x1="11.804" y1="49.561" x2="44.172" y2="17.193" gradientUnits="userSpaceOnUse">
      <stop offset="0" stop-color="#cfe7f7"/>
      <stop offset="1" stop-color="#e1edf8"/>
    </linearGradient>
    <linearGradient id="uuid-71d94c6a-cfd6-4881-a26a-95d911497e2e" data-name="New Gradient Swatch copy" x1="3.815" y1="60.375" x2="14.315" y2="60.375" xlink:href="#uuid-3484e342-8aca-4be7-a880-ce410a9f5689"/>
    <linearGradient id="uuid-685ef0ae-7b49-4322-9dfa-92aa45b85aa0" data-name="New Gradient Swatch copy" x1="14.449" y1="60.375" x2="24.949" y2="60.375" xlink:href="#uuid-3484e342-8aca-4be7-a880-ce410a9f5689"/>
  </defs>
  <g id="uuid-25d7accf-fd5b-4440-8eba-a4ca68fe6f32" data-name="Icons">
    <g id="uuid-c470e258-fa78-4d32-b8fb-c38456d4c234" data-name="thunder-showers-night">
      <path d="m36.1,44.807l-5.267,9.122c-.825,1.429-.154,2.499,1.492,2.378l4.302-.316c1.646-.121,2.347.966,1.56,2.416l-4.785,8.806c-.788,1.45-.39,1.778.885.73l17.301-14.229c1.274-1.048.969-1.837-.679-1.752l-6.611.338c-1.648.084-2.321-1.016-1.496-2.445l2.91-5.04c.825-1.429.15-2.599-1.5-2.601l-3.612-.003c-1.65-.002-3.675,1.166-4.5,2.595Z" fill="url(#uuid-ee1d3925-073f-433d-be68-1fe9e4b3cd7b)"/>
      <path d="m52.94,28.666c-8.054,0-14.606-6.552-14.606-14.606C38.333,7.586,42.681,1.816,48.907.029c.271-.076.556-.002.752.195.197.197.271.485.194.752-.342,1.194-.516,2.409-.516,3.611,0,7.21,5.866,13.076,13.076,13.076,1.2,0,2.415-.174,3.611-.517.268-.075.555-.001.752.195.197.197.271.485.194.752-1.787,6.226-7.557,10.574-14.03,10.574Z" fill="url(#uuid-3484e342-8aca-4be7-a880-ce410a9f5689)"/>
      <path d="m46.003,45.488c5.889,0,10.664-4.774,10.664-10.664s-4.774-10.664-10.664-10.664c-.037,0-.072.005-.109.005-.949-8.504-8.158-15.117-16.915-15.117-6.916,0-12.864,4.126-15.528,10.049-.084-.002-.168-.006-.252-.006-7.289,0-13.198,5.909-13.198,13.198s5.909,13.198,13.198,13.198" fill="url(#uuid-1c6eaac5-cb4f-4fca-bedb-38ab7eec78c3)"/>
      <path d="m60.22,45.488c3.698,0,6.696-2.998,6.696-6.696s-2.998-6.696-6.696-6.696c-.023,0-.045.003-.068.003-.596-5.34-5.123-9.492-10.622-9.492-4.343,0-8.078,2.591-9.751,6.31-.053,0-.105-.004-.158-.004-4.577,0-8.288,3.711-8.288,8.288s3.711,8.288,8.288,8.288" fill="#fff"/>
      <path d="m5.813,68.003c-.339,0-.683-.086-.998-.268-.957-.553-1.284-1.775-.732-2.732l6.499-11.257c.551-.957,1.776-1.283,2.732-.732.957.553,1.284,1.775.732,2.732l-6.499,11.257c-.37.642-1.042,1-1.734,1Z" fill="url(#uuid-71d94c6a-cfd6-4881-a26a-95d911497e2e)"/>
      <path d="m16.448,68.003c-.339,0-.683-.086-.998-.268-.957-.553-1.284-1.775-.732-2.732l6.499-11.257c.552-.957,1.775-1.283,2.732-.732.957.553,1.284,1.775.732,2.732l-6.499,11.257c-.37.642-1.042,1-1.734,1Z" fill="url(#uuid-685ef0ae-7b49-4322-9dfa-92aa45b85aa0)"/>
    </g>
  </g>
</svg>