<?xml version="1.0" encoding="UTF-8"?>
<svg id="uuid-7f3d8542-4f0b-4c7f-9a27-42926a23c8c3" data-name="Layer 2" xmlns="http://www.w3.org/2000/svg" xmlns:xlink="http://www.w3.org/1999/xlink" viewBox="0 0 66.917 59.21">
  <defs>
    <linearGradient id="uuid-88e5f0c1-4fea-4248-a791-7bd4f78cac02" data-name="New Gradient Swatch 1" x1="15.789" y1="54.887" x2="34.996" y2="35.679" gradientUnits="userSpaceOnUse">
      <stop offset="0" stop-color="#fcb627"/>
      <stop offset="1" stop-color="#ffcd22"/>
    </linearGradient>
    <linearGradient id="uuid-93d68d24-c058-418c-88a1-2d13304f7c05" data-name="New Gradient Swatch copy 2" x1="38.746" y1="38.996" x2="59.071" y2="18.671" gradientUnits="userSpaceOnUse">
      <stop offset="0" stop-color="#cfe7f7"/>
      <stop offset="1" stop-color="#e1edf8"/>
    </linearGradient>
  </defs>
  <g id="uuid-dd147db5-f4e6-42b2-aefd-59308bc7b301" data-name="Icons">
    <g id="uuid-684c16c4-e903-47d1-8914-8317e3746cf7" data-name="thunder">
      <path d="m23.1,35.46l-5.267,9.122c-.825,1.429-.154,2.499,1.492,2.378l4.302-.316c1.646-.121,2.347.966,1.56,2.416l-4.785,8.806c-.788,1.45-.39,1.778.885.73l17.301-14.229c1.274-1.048.969-1.837-.679-1.752l-6.611.338c-1.648.084-2.321-1.016-1.496-2.445l2.91-5.04c.825-1.429.15-2.599-1.5-2.601l-3.612-.003c-1.65-.002-3.675,1.166-4.5,2.595Z" fill="url(#uuid-88e5f0c1-4fea-4248-a791-7bd4f78cac02)"/>
      <path d="m46.003,36.439c5.889,0,10.664-4.774,10.664-10.664s-4.774-10.664-10.664-10.664c-.037,0-.072.005-.109.005C44.945,6.613,37.736,0,28.979,0c-6.916,0-12.864,4.126-15.528,10.049-.084-.002-.168-.006-.252-.006C5.909,10.042,0,15.951,0,23.241s5.909,13.198,13.198,13.198" fill="#fff"/>
      <path d="m60.22,36.439c3.698,0,6.696-2.998,6.696-6.696s-2.998-6.696-6.696-6.696c-.023,0-.045.003-.068.003-.596-5.34-5.123-9.492-10.622-9.492-4.343,0-8.078,2.591-9.751,6.31-.053,0-.105-.004-.158-.004-4.577,0-8.288,3.711-8.288,8.288s3.711,8.288,8.288,8.288" fill="url(#uuid-93d68d24-c058-418c-88a1-2d13304f7c05)"/>
    </g>
  </g>
</svg>