<?xml version="1.0" encoding="UTF-8"?>
<svg id="uuid-61e967d8-89b1-4b8e-95c8-2cf921527e40" data-name="Layer 2" xmlns="http://www.w3.org/2000/svg" xmlns:xlink="http://www.w3.org/1999/xlink" viewBox="0 0 66.917 60.682">
  <defs>
    <linearGradient id="uuid-20cbe296-9b8d-4db4-8cd6-b7f2dfe9e0da" data-name="New Gradient Swatch 1" x1="39.612" y1="22.192" x2="57.997" y2="3.808" gradientUnits="userSpaceOnUse">
      <stop offset="0" stop-color="#fcb627"/>
      <stop offset="1" stop-color="#ffcd22"/>
    </linearGradient>
    <linearGradient id="uuid-91d2ec1b-988f-4435-802e-ae96b59a5736" data-name="New Gradient Swatch 1" x1="28.789" y1="56.019" x2="47.996" y2="36.811" xlink:href="#uuid-20cbe296-9b8d-4db4-8cd6-b7f2dfe9e0da"/>
    <linearGradient id="uuid-c7f076b3-ae3a-4fed-9ff6-36f55761c8e5" data-name="New Gradient Swatch copy 2" x1="11.804" y1="42.239" x2="44.172" y2="9.872" gradientUnits="userSpaceOnUse">
      <stop offset="0" stop-color="#cfe7f7"/>
      <stop offset="1" stop-color="#e1edf8"/>
    </linearGradient>
    <linearGradient id="uuid-7198c81a-0b08-4369-a277-0190afee1e33" data-name="New Gradient Swatch copy" x1="3.815" y1="53.053" x2="14.315" y2="53.053" gradientUnits="userSpaceOnUse">
      <stop offset="0" stop-color="#00adee"/>
      <stop offset="1" stop-color="#00bcf1"/>
    </linearGradient>
    <linearGradient id="uuid-db1be991-a41f-43f2-be29-3624a4d57771" data-name="New Gradient Swatch copy" x1="14.449" x2="24.949" xlink:href="#uuid-7198c81a-0b08-4369-a277-0190afee1e33"/>
  </defs>
  <g id="uuid-35d5e778-7d01-4bc9-abed-067303caadf5" data-name="Icons">
    <g id="uuid-6f43cd1f-31e3-4ad3-826c-5642beeaba61" data-name="thunder-showers-day">
      <circle cx="48.804" cy="13" r="13" fill="url(#uuid-20cbe296-9b8d-4db4-8cd6-b7f2dfe9e0da)"/>
      <path d="m36.1,36.592l-5.267,9.122c-.825,1.429-.154,2.499,1.492,2.378l4.302-.316c1.646-.121,2.347.966,1.56,2.416l-4.785,8.806c-.788,1.45-.39,1.778.885.73l17.301-14.229c1.274-1.048.969-1.837-.679-1.752l-6.611.338c-1.648.084-2.321-1.016-1.496-2.445l2.91-5.04c.825-1.429.15-2.599-1.5-2.601l-3.612-.003c-1.65-.002-3.675,1.166-4.5,2.595Z" fill="url(#uuid-91d2ec1b-988f-4435-802e-ae96b59a5736)"/>
      <path d="m46.003,38.166c5.889,0,10.664-4.774,10.664-10.664s-4.774-10.664-10.664-10.664c-.037,0-.072.005-.109.005-.949-8.504-8.158-15.117-16.915-15.117-6.916,0-12.864,4.126-15.528,10.049-.084-.002-.168-.006-.252-.006C5.909,11.77,0,17.679,0,24.968s5.909,13.198,13.198,13.198" fill="url(#uuid-c7f076b3-ae3a-4fed-9ff6-36f55761c8e5)"/>
      <path d="m60.22,38.166c3.698,0,6.696-2.998,6.696-6.696s-2.998-6.696-6.696-6.696c-.023,0-.045.003-.068.003-.596-5.34-5.123-9.492-10.622-9.492-4.343,0-8.078,2.591-9.751,6.31-.053,0-.105-.004-.158-.004-4.577,0-8.288,3.711-8.288,8.288s3.711,8.288,8.288,8.288" fill="#fff"/>
      <path d="m5.813,60.682c-.339,0-.683-.086-.998-.268-.957-.553-1.284-1.775-.732-2.732l6.499-11.257c.551-.957,1.776-1.283,2.732-.732.957.553,1.284,1.775.732,2.732l-6.499,11.257c-.37.642-1.042,1-1.734,1Z" fill="url(#uuid-7198c81a-0b08-4369-a277-0190afee1e33)"/>
      <path d="m16.448,60.682c-.339,0-.683-.086-.998-.268-.957-.553-1.284-1.775-.732-2.732l6.499-11.257c.552-.957,1.775-1.283,2.732-.732.957.553,1.284,1.775.732,2.732l-6.499,11.257c-.37.642-1.042,1-1.734,1Z" fill="url(#uuid-db1be991-a41f-43f2-be29-3624a4d57771)"/>
    </g>
  </g>
</svg>